# xmcd
#
# Track frame offsets:
#	150
#	11081
#	21816
#	35135
#	48531
#	64020
#	77603
#	90075
#	100526
#	113684
#	127583
#	141966
#	153476
#	166888
#	180188
#	193188
#	206473
#	220686
#	232675
#	246665
#
# Disc length: 3448 seconds
#
# Revision: 1
# Processed by: cddbd v1.5.2PL0 Copyright (c) Steve Scherf et al.
# Submitted via: audiograbber 1.83.01
#
DISCID=f70d7614
DTITLE=Varios - There Stands The Glass
DYEAR=2005
DGENRE=Country
TTITLE0=Webb Pirce - There stands the glass
TTITLE1=Bigg Bill Lister - There´s a tear in my beer
TTITLE2=Ernest Tubb - Drivin nalis in my coffin
TTITLE3=Lefly Frizell - If yoy´ve got the money
TTITLE4=Jimmie Rodgers - Gambing bar room blues
TTITLE5=Kitty Wells  - Deat at the bar
TTITLE6=Hank Williams - Honky Tonkin
TTITLE7=Bob Wills and His Texas Playboys - Bubbles in my beer
TTITLE8=Flatt and Scuggs - Dim Lights thick smoke
TTITLE9=Molly o Day - The drunken driver
TTITLE10=Tex Ritter - Rye Whiskey
TTITLE11=The Delmone Brothers - Goodbye Boonze
TTITLE12=Jonny Bond - Set em up Joe
TTITLE13=Floyd Tillman - Drinking and Thiking
TTITLE14=Tommy Dunckan - Sick Sober and Sorry
TTITLE15=The Bailes Brother - Wiskey in the Devil
TTITLE16=Enest Tubb - Warm red Wine
TTITLE17=The Stanley Brothers - The Drunkard´s hell
TTITLE18=Claude King - 51 Beers
TTITLE19=Al Dexter and His Troopers - Wine, Women and song
EXTD=
EXTT0=
EXTT1=
EXTT2=
EXTT3=
EXTT4=
EXTT5=
EXTT6=
EXTT7=
EXTT8=
EXTT9=
EXTT10=
EXTT11=
EXTT12=
EXTT13=
EXTT14=
EXTT15=
EXTT16=
EXTT17=
EXTT18=
EXTT19=
PLAYORDER=
